# xmcd CD database file
#
# Track frame offsets:
#	150
#	41214
#	69207
#	94691
#	112441
#	149014
#	177510
#	212357
#	223693
#	242702
#	266705
#	278307
#	296342
#	310064
#
# Disc length: 4508 seconds
#
# Revision: 4
# Processed by: cddbd v1.5.1PL2 Copyright (c) Steve Scherf et al.
# Submitted via: CDex 1.51
#
DISCID=d9119a0e
DTITLE=Funkadelic - Funkadelic
DYEAR=1970
DGENRE=Funk
TTITLE0=Mommy, What's A Funkadelic?
TTITLE1=I'll Bet You
TTITLE2=Music For My Mother
TTITLE3=I Got A Thing, You Got A Thing, Everybody's Got A Thing
TTITLE4=Good Old Music
TTITLE5=Qualify And Satisfy
TTITLE6=What Is Soul
TTITLE7=Can't Shake It Loose (1969)
TTITLE8=I'll Bet You (1969)
TTITLE9=Music For My Mother (1969)
TTITLE10=As Good As I Can Feel (1969)
TTITLE11=Open Our Eyes (1969)
TTITLE12=Qualify And Satisfy (45 Version)
TTITLE13=Music For My Mother (Instrumental 45 Version)
EXTD=YEAR: 1970
EXTT0=
EXTT1=
EXTT2=
EXTT3=
EXTT4=
EXTT5=
EXTT6=
EXTT7=
EXTT8=
EXTT9=
EXTT10=
EXTT11=
EXTT12=
EXTT13=
PLAYORDER=
